<?xml version="1.0" encoding="UTF-8" ?>
<svg version="1.1" width="42" height="21" xmlns="http://www.w3.org/2000/svg" shape-rendering="crispEdges">
<rect x="0" y="0" width="1" height="1" fill="#141323" />
<rect x="1" y="0" width="1" height="1" fill="#141323" />
<rect x="2" y="0" width="1" height="1" fill="#141323" />
<rect x="3" y="0" width="1" height="1" fill="#141323" />
<rect x="4" y="0" width="1" height="1" fill="#141323" />
<rect x="5" y="0" width="1" height="1" fill="#141323" />
<rect x="6" y="0" width="1" height="1" fill="#141323" />
<rect x="7" y="0" width="1" height="1" fill="#141323" />
<rect x="8" y="0" width="1" height="1" fill="#141323" />
<rect x="9" y="0" width="1" height="1" fill="#141323" />
<rect x="10" y="0" width="1" height="1" fill="#141323" />
<rect x="11" y="0" width="1" height="1" fill="#141323" />
<rect x="12" y="0" width="1" height="1" fill="#141323" />
<rect x="13" y="0" width="1" height="1" fill="#141323" />
<rect x="14" y="0" width="1" height="1" fill="#141323" />
<rect x="15" y="0" width="1" height="1" fill="#141323" />
<rect x="16" y="0" width="1" height="1" fill="#141323" />
<rect x="17" y="0" width="1" height="1" fill="#141323" />
<rect x="18" y="0" width="1" height="1" fill="#141323" />
<rect x="19" y="0" width="1" height="1" fill="#141323" />
<rect x="20" y="0" width="1" height="1" fill="#141323" />
<rect x="21" y="0" width="1" height="1" fill="#141323" />
<rect x="22" y="0" width="1" height="1" fill="#141323" />
<rect x="23" y="0" width="1" height="1" fill="#141323" />
<rect x="24" y="0" width="1" height="1" fill="#141323" />
<rect x="25" y="0" width="1" height="1" fill="#141323" />
<rect x="26" y="0" width="1" height="1" fill="#141323" />
<rect x="27" y="0" width="1" height="1" fill="#141323" />
<rect x="28" y="0" width="1" height="1" fill="#141323" />
<rect x="29" y="0" width="1" height="1" fill="#141323" />
<rect x="30" y="0" width="1" height="1" fill="#141323" />
<rect x="31" y="0" width="1" height="1" fill="#141323" />
<rect x="32" y="0" width="1" height="1" fill="#141323" />
<rect x="33" y="0" width="1" height="1" fill="#141323" />
<rect x="34" y="0" width="1" height="1" fill="#141323" />
<rect x="35" y="0" width="1" height="1" fill="#141323" />
<rect x="36" y="0" width="1" height="1" fill="#141323" />
<rect x="37" y="0" width="1" height="1" fill="#141323" />
<rect x="38" y="0" width="1" height="1" fill="#141323" />
<rect x="39" y="0" width="1" height="1" fill="#141323" />
<rect x="40" y="0" width="1" height="1" fill="#141323" />
<rect x="41" y="0" width="1" height="1" fill="#141323" />
<rect x="0" y="1" width="1" height="1" fill="#141323" />
<rect x="1" y="1" width="1" height="1" fill="#AC3232" />
<rect x="2" y="1" width="1" height="1" fill="#EBE5E5" />
<rect x="3" y="1" width="1" height="1" fill="#ECE5E5" />
<rect x="4" y="1" width="1" height="1" fill="#EAE5E5" />
<rect x="5" y="1" width="1" height="1" fill="#ECE5E5" />
<rect x="6" y="1" width="1" height="1" fill="#ECE5E5" />
<rect x="7" y="1" width="1" height="1" fill="#ECE5E5" />
<rect x="8" y="1" width="1" height="1" fill="#ECE5E5" />
<rect x="9" y="1" width="1" height="1" fill="#ECE5E5" />
<rect x="10" y="1" width="1" height="1" fill="#3F3F74" />
<rect x="11" y="1" width="1" height="1" fill="#3F3F74" />
<rect x="12" y="1" width="1" height="1" fill="#EEE5E5" />
<rect x="13" y="1" width="1" height="1" fill="#EEE5E5" />
<rect x="14" y="1" width="1" height="1" fill="#EEE5E5" />
<rect x="15" y="1" width="1" height="1" fill="#EEE5E5" />
<rect x="16" y="1" width="1" height="1" fill="#EEE5E5" />
<rect x="17" y="1" width="1" height="1" fill="#EEE5E5" />
<rect x="18" y="1" width="1" height="1" fill="#EEE5E5" />
<rect x="19" y="1" width="1" height="1" fill="#EEE5E5" />
<rect x="20" y="1" width="1" height="1" fill="#EEE5E5" />
<rect x="21" y="1" width="1" height="1" fill="#EEE5E5" />
<rect x="22" y="1" width="1" height="1" fill="#EEE5E5" />
<rect x="23" y="1" width="1" height="1" fill="#EEE5E5" />
<rect x="24" y="1" width="1" height="1" fill="#EEE5E5" />
<rect x="25" y="1" width="1" height="1" fill="#EEE5E5" />
<rect x="26" y="1" width="1" height="1" fill="#EEE5E5" />
<rect x="27" y="1" width="1" height="1" fill="#EEE5E5" />
<rect x="28" y="1" width="1" height="1" fill="#EEE5E5" />
<rect x="29" y="1" width="1" height="1" fill="#EEE5E5" />
<rect x="30" y="1" width="1" height="1" fill="#EEE5E5" />
<rect x="31" y="1" width="1" height="1" fill="#EEE5E5" />
<rect x="32" y="1" width="1" height="1" fill="#EEE5E5" />
<rect x="33" y="1" width="1" height="1" fill="#EEE5E5" />
<rect x="34" y="1" width="1" height="1" fill="#EEE5E5" />
<rect x="35" y="1" width="1" height="1" fill="#EEE5E5" />
<rect x="36" y="1" width="1" height="1" fill="#EEE5E5" />
<rect x="37" y="1" width="1" height="1" fill="#EEE5E5" />
<rect x="38" y="1" width="1" height="1" fill="#CFD0D4" />
<rect x="39" y="1" width="1" height="1" fill="#BCC3C9" />
<rect x="40" y="1" width="1" height="1" fill="#A07979" />
<rect x="41" y="1" width="1" height="1" fill="#141323" />
<rect x="0" y="2" width="1" height="1" fill="#141323" />
<rect x="1" y="2" width="1" height="1" fill="#EEE5E5" />
<rect x="2" y="2" width="1" height="1" fill="#EEE5E5" />
<rect x="3" y="2" width="1" height="1" fill="#EEE5E5" />
<rect x="4" y="2" width="1" height="1" fill="#EEE5E5" />
<rect x="5" y="2" width="1" height="1" fill="#EEE5E5" />
<rect x="6" y="2" width="1" height="1" fill="#EEE5E5" />
<rect x="7" y="2" width="1" height="1" fill="#EEE5E5" />
<rect x="8" y="2" width="1" height="1" fill="#EEE5E5" />
<rect x="9" y="2" width="1" height="1" fill="#EEE5E5" />
<rect x="10" y="2" width="1" height="1" fill="#3F3F74" />
<rect x="11" y="2" width="1" height="1" fill="#DF7126" />
<rect x="12" y="2" width="1" height="1" fill="#EEE5E5" />
<rect x="13" y="2" width="1" height="1" fill="#EEE5E5" />
<rect x="14" y="2" width="1" height="1" fill="#EEE5E5" />
<rect x="15" y="2" width="1" height="1" fill="#EEE5E5" />
<rect x="16" y="2" width="1" height="1" fill="#EEE5E5" />
<rect x="17" y="2" width="1" height="1" fill="#EEE5E5" />
<rect x="18" y="2" width="1" height="1" fill="#EEE5E5" />
<rect x="19" y="2" width="1" height="1" fill="#EEE5E5" />
<rect x="20" y="2" width="1" height="1" fill="#EEE5E5" />
<rect x="21" y="2" width="1" height="1" fill="#EEE5E5" />
<rect x="22" y="2" width="1" height="1" fill="#EEE5E5" />
<rect x="23" y="2" width="1" height="1" fill="#EEE5E5" />
<rect x="24" y="2" width="1" height="1" fill="#BEB7BB" />
<rect x="25" y="2" width="1" height="1" fill="#EEE5E5" />
<rect x="26" y="2" width="1" height="1" fill="#BEB7BB" />
<rect x="27" y="2" width="1" height="1" fill="#EEE5E5" />
<rect x="28" y="2" width="1" height="1" fill="#BEB7BB" />
<rect x="29" y="2" width="1" height="1" fill="#BEB7BB" />
<rect x="30" y="2" width="1" height="1" fill="#EEE5E5" />
<rect x="31" y="2" width="1" height="1" fill="#BEB7BB" />
<rect x="32" y="2" width="1" height="1" fill="#EEE5E5" />
<rect x="33" y="2" width="1" height="1" fill="#EEE5E5" />
<rect x="34" y="2" width="1" height="1" fill="#EEE5E5" />
<rect x="35" y="2" width="1" height="1" fill="#EEE5E5" />
<rect x="36" y="2" width="1" height="1" fill="#EEE5E5" />
<rect x="37" y="2" width="1" height="1" fill="#EEE5E5" />
<rect x="38" y="2" width="1" height="1" fill="#EEE5E5" />
<rect x="39" y="2" width="1" height="1" fill="#EEE5E5" />
<rect x="40" y="2" width="1" height="1" fill="#847E87" />
<rect x="41" y="2" width="1" height="1" fill="#141323" />
<rect x="0" y="3" width="1" height="1" fill="#141323" />
<rect x="1" y="3" width="1" height="1" fill="#C2C2C2" />
<rect x="2" y="3" width="1" height="1" fill="#C2C2C2" />
<rect x="3" y="3" width="1" height="1" fill="#C2C2C2" />
<rect x="4" y="3" width="1" height="1" fill="#C2C2C2" />
<rect x="5" y="3" width="1" height="1" fill="#C2C2C2" />
<rect x="6" y="3" width="1" height="1" fill="#C2C2C2" />
<rect x="7" y="3" width="1" height="1" fill="#C2C2C2" />
<rect x="8" y="3" width="1" height="1" fill="#C2C2C2" />
<rect x="9" y="3" width="1" height="1" fill="#C2C2C2" />
<rect x="10" y="3" width="1" height="1" fill="#C2C2C2" />
<rect x="11" y="3" width="1" height="1" fill="#C2C2C2" />
<rect x="12" y="3" width="1" height="1" fill="#C2C2C2" />
<rect x="13" y="3" width="1" height="1" fill="#C2C2C2" />
<rect x="14" y="3" width="1" height="1" fill="#C2C2C2" />
<rect x="15" y="3" width="1" height="1" fill="#C2C2C2" />
<rect x="16" y="3" width="1" height="1" fill="#C2C2C2" />
<rect x="17" y="3" width="1" height="1" fill="#C2C2C2" />
<rect x="18" y="3" width="1" height="1" fill="#C2C2C2" />
<rect x="19" y="3" width="1" height="1" fill="#C2C2C2" />
<rect x="20" y="3" width="1" height="1" fill="#C2C2C2" />
<rect x="21" y="3" width="1" height="1" fill="#C2C2C2" />
<rect x="22" y="3" width="1" height="1" fill="#C2C2C2" />
<rect x="23" y="3" width="1" height="1" fill="#C2C2C2" />
<rect x="24" y="3" width="1" height="1" fill="#C2C2C2" />
<rect x="25" y="3" width="1" height="1" fill="#C2C2C2" />
<rect x="26" y="3" width="1" height="1" fill="#C2C2C2" />
<rect x="27" y="3" width="1" height="1" fill="#C2C2C2" />
<rect x="28" y="3" width="1" height="1" fill="#C2C2C2" />
<rect x="29" y="3" width="1" height="1" fill="#C2C2C2" />
<rect x="30" y="3" width="1" height="1" fill="#C2C2C2" />
<rect x="31" y="3" width="1" height="1" fill="#C2C2C2" />
<rect x="32" y="3" width="1" height="1" fill="#C2C2C2" />
<rect x="33" y="3" width="1" height="1" fill="#C2C2C2" />
<rect x="34" y="3" width="1" height="1" fill="#C2C2C2" />
<rect x="35" y="3" width="1" height="1" fill="#C2C2C2" />
<rect x="36" y="3" width="1" height="1" fill="#C2C2C2" />
<rect x="37" y="3" width="1" height="1" fill="#C2C2C2" />
<rect x="38" y="3" width="1" height="1" fill="#C2C2C2" />
<rect x="39" y="3" width="1" height="1" fill="#C2C2C2" />
<rect x="40" y="3" width="1" height="1" fill="#847E87" />
<rect x="41" y="3" width="1" height="1" fill="#141323" />
<rect x="0" y="4" width="1" height="1" fill="#141323" />
<rect x="1" y="4" width="1" height="1" fill="#C2C2C2" />
<rect x="2" y="4" width="1" height="1" fill="#C2C2C2" />
<rect x="3" y="4" width="1" height="1" fill="#C2C2C2" />
<rect x="4" y="4" width="1" height="1" fill="#C2C2C2" />
<rect x="5" y="4" width="1" height="1" fill="#C2C2C2" />
<rect x="6" y="4" width="1" height="1" fill="#C2C2C2" />
<rect x="7" y="4" width="1" height="1" fill="#C2C2C2" />
<rect x="8" y="4" width="1" height="1" fill="#C2C2C2" />
<rect x="9" y="4" width="1" height="1" fill="#C2C2C2" />
<rect x="10" y="4" width="1" height="1" fill="#EEE5E5" />
<rect x="11" y="4" width="1" height="1" fill="#EEE5E5" />
<rect x="12" y="4" width="1" height="1" fill="#EEE5E5" />
<rect x="13" y="4" width="1" height="1" fill="#EEE5E5" />
<rect x="14" y="4" width="1" height="1" fill="#C2C2C2" />
<rect x="15" y="4" width="1" height="1" fill="#C2C2C2" />
<rect x="16" y="4" width="1" height="1" fill="#EEE5E5" />
<rect x="17" y="4" width="1" height="1" fill="#EEE5E5" />
<rect x="18" y="4" width="1" height="1" fill="#EEE5E5" />
<rect x="19" y="4" width="1" height="1" fill="#EEE5E5" />
<rect x="20" y="4" width="1" height="1" fill="#C2C2C2" />
<rect x="21" y="4" width="1" height="1" fill="#C2C2C2" />
<rect x="22" y="4" width="1" height="1" fill="#B8BAE5" />
<rect x="23" y="4" width="1" height="1" fill="#D0CDE5" />
<rect x="24" y="4" width="1" height="1" fill="#EEE5E5" />
<rect x="25" y="4" width="1" height="1" fill="#EEE5E5" />
<rect x="26" y="4" width="1" height="1" fill="#C2C2C2" />
<rect x="27" y="4" width="1" height="1" fill="#C2C2C2" />
<rect x="28" y="4" width="1" height="1" fill="#EEE5E5" />
<rect x="29" y="4" width="1" height="1" fill="#EEE5E5" />
<rect x="30" y="4" width="1" height="1" fill="#EEE5E5" />
<rect x="31" y="4" width="1" height="1" fill="#EEE5E5" />
<rect x="32" y="4" width="1" height="1" fill="#C2C2C2" />
<rect x="33" y="4" width="1" height="1" fill="#C2C2C2" />
<rect x="34" y="4" width="1" height="1" fill="#C2C2C2" />
<rect x="35" y="4" width="1" height="1" fill="#C2C2C2" />
<rect x="36" y="4" width="1" height="1" fill="#C2C2C2" />
<rect x="37" y="4" width="1" height="1" fill="#C2C2C2" />
<rect x="38" y="4" width="1" height="1" fill="#C2C2C2" />
<rect x="39" y="4" width="1" height="1" fill="#C2C2C2" />
<rect x="40" y="4" width="1" height="1" fill="#847E87" />
<rect x="41" y="4" width="1" height="1" fill="#141323" />
<rect x="0" y="5" width="1" height="1" fill="#141323" />
<rect x="1" y="5" width="1" height="1" fill="#C2C2C2" />
<rect x="2" y="5" width="1" height="1" fill="#C2C2C2" />
<rect x="3" y="5" width="1" height="1" fill="#C2C2C2" />
<rect x="4" y="5" width="1" height="1" fill="#C2C2C2" />
<rect x="5" y="5" width="1" height="1" fill="#C2C2C2" />
<rect x="6" y="5" width="1" height="1" fill="#C2C2C2" />
<rect x="7" y="5" width="1" height="1" fill="#C2C2C2" />
<rect x="8" y="5" width="1" height="1" fill="#C2C2C2" />
<rect x="9" y="5" width="1" height="1" fill="#C2C2C2" />
<rect x="10" y="5" width="1" height="1" fill="#D0CDE5" />
<rect x="11" y="5" width="1" height="1" fill="#B8BAE5" />
<rect x="12" y="5" width="1" height="1" fill="#D0CDE5" />
<rect x="13" y="5" width="1" height="1" fill="#EEE5E5" />
<rect x="14" y="5" width="1" height="1" fill="#C2C2C2" />
<rect x="15" y="5" width="1" height="1" fill="#C2C2C2" />
<rect x="16" y="5" width="1" height="1" fill="#D0CDE5" />
<rect x="17" y="5" width="1" height="1" fill="#A5ABE5" />
<rect x="18" y="5" width="1" height="1" fill="#B8BAE5" />
<rect x="19" y="5" width="1" height="1" fill="#D0CDE5" />
<rect x="20" y="5" width="1" height="1" fill="#C2C2C2" />
<rect x="21" y="5" width="1" height="1" fill="#C2C2C2" />
<rect x="22" y="5" width="1" height="1" fill="#A5ABE5" />
<rect x="23" y="5" width="1" height="1" fill="#B8BAE5" />
<rect x="24" y="5" width="1" height="1" fill="#B8BAE5" />
<rect x="25" y="5" width="1" height="1" fill="#D0CDE5" />
<rect x="26" y="5" width="1" height="1" fill="#C2C2C2" />
<rect x="27" y="5" width="1" height="1" fill="#C2C2C2" />
<rect x="28" y="5" width="1" height="1" fill="#D0CDE5" />
<rect x="29" y="5" width="1" height="1" fill="#D0CDE5" />
<rect x="30" y="5" width="1" height="1" fill="#D0CDE5" />
<rect x="31" y="5" width="1" height="1" fill="#D0CDE5" />
<rect x="32" y="5" width="1" height="1" fill="#C2C2C2" />
<rect x="33" y="5" width="1" height="1" fill="#C2C2C2" />
<rect x="34" y="5" width="1" height="1" fill="#C2C2C2" />
<rect x="35" y="5" width="1" height="1" fill="#C2C2C2" />
<rect x="36" y="5" width="1" height="1" fill="#C2C2C2" />
<rect x="37" y="5" width="1" height="1" fill="#C2C2C2" />
<rect x="38" y="5" width="1" height="1" fill="#C2C2C2" />
<rect x="39" y="5" width="1" height="1" fill="#C2C2C2" />
<rect x="40" y="5" width="1" height="1" fill="#847E87" />
<rect x="41" y="5" width="1" height="1" fill="#141323" />
<rect x="0" y="6" width="1" height="1" fill="#141323" />
<rect x="1" y="6" width="1" height="1" fill="#C2C2C2" />
<rect x="2" y="6" width="1" height="1" fill="#C2C2C2" />
<rect x="3" y="6" width="1" height="1" fill="#C2C2C2" />
<rect x="4" y="6" width="1" height="1" fill="#C2C2C2" />
<rect x="5" y="6" width="1" height="1" fill="#C2C2C2" />
<rect x="6" y="6" width="1" height="1" fill="#C2C2C2" />
<rect x="7" y="6" width="1" height="1" fill="#C2C2C2" />
<rect x="8" y="6" width="1" height="1" fill="#C2C2C2" />
<rect x="9" y="6" width="1" height="1" fill="#C2C2C2" />
<rect x="10" y="6" width="1" height="1" fill="#EEE5E5" />
<rect x="11" y="6" width="1" height="1" fill="#969FE5" />
<rect x="12" y="6" width="1" height="1" fill="#B8BAE5" />
<rect x="13" y="6" width="1" height="1" fill="#D0CDE5" />
<rect x="14" y="6" width="1" height="1" fill="#C2C2C2" />
<rect x="15" y="6" width="1" height="1" fill="#C2C2C2" />
<rect x="16" y="6" width="1" height="1" fill="#EEE5E5" />
<rect x="17" y="6" width="1" height="1" fill="#EEE5E5" />
<rect x="18" y="6" width="1" height="1" fill="#EEE5E5" />
<rect x="19" y="6" width="1" height="1" fill="#EEE5E5" />
<rect x="20" y="6" width="1" height="1" fill="#C2C2C2" />
<rect x="21" y="6" width="1" height="1" fill="#C2C2C2" />
<rect x="22" y="6" width="1" height="1" fill="#EEE5E5" />
<rect x="23" y="6" width="1" height="1" fill="#EEE5E5" />
<rect x="24" y="6" width="1" height="1" fill="#EEE5E5" />
<rect x="25" y="6" width="1" height="1" fill="#EEE5E5" />
<rect x="26" y="6" width="1" height="1" fill="#C2C2C2" />
<rect x="27" y="6" width="1" height="1" fill="#C2C2C2" />
<rect x="28" y="6" width="1" height="1" fill="#EEE5E5" />
<rect x="29" y="6" width="1" height="1" fill="#EEE5E5" />
<rect x="30" y="6" width="1" height="1" fill="#EEE5E5" />
<rect x="31" y="6" width="1" height="1" fill="#EEE5E5" />
<rect x="32" y="6" width="1" height="1" fill="#C2C2C2" />
<rect x="33" y="6" width="1" height="1" fill="#C2C2C2" />
<rect x="34" y="6" width="1" height="1" fill="#C2C2C2" />
<rect x="35" y="6" width="1" height="1" fill="#C2C2C2" />
<rect x="36" y="6" width="1" height="1" fill="#C2C2C2" />
<rect x="37" y="6" width="1" height="1" fill="#C2C2C2" />
<rect x="38" y="6" width="1" height="1" fill="#C2C2C2" />
<rect x="39" y="6" width="1" height="1" fill="#C2C2C2" />
<rect x="40" y="6" width="1" height="1" fill="#847E87" />
<rect x="41" y="6" width="1" height="1" fill="#141323" />
<rect x="0" y="7" width="1" height="1" fill="#141323" />
<rect x="1" y="7" width="1" height="1" fill="#C2C2C2" />
<rect x="2" y="7" width="1" height="1" fill="#C2C2C2" />
<rect x="3" y="7" width="1" height="1" fill="#C2C2C2" />
<rect x="4" y="7" width="1" height="1" fill="#C2C2C2" />
<rect x="5" y="7" width="1" height="1" fill="#C2C2C2" />
<rect x="6" y="7" width="1" height="1" fill="#C2C2C2" />
<rect x="7" y="7" width="1" height="1" fill="#C2C2C2" />
<rect x="8" y="7" width="1" height="1" fill="#C2C2C2" />
<rect x="9" y="7" width="1" height="1" fill="#C2C2C2" />
<rect x="10" y="7" width="1" height="1" fill="#C2C2C2" />
<rect x="11" y="7" width="1" height="1" fill="#C2C2C2" />
<rect x="12" y="7" width="1" height="1" fill="#C2C2C2" />
<rect x="13" y="7" width="1" height="1" fill="#C2C2C2" />
<rect x="14" y="7" width="1" height="1" fill="#C2C2C2" />
<rect x="15" y="7" width="1" height="1" fill="#C2C2C2" />
<rect x="16" y="7" width="1" height="1" fill="#C2C2C2" />
<rect x="17" y="7" width="1" height="1" fill="#C2C2C2" />
<rect x="18" y="7" width="1" height="1" fill="#C2C2C2" />
<rect x="19" y="7" width="1" height="1" fill="#C2C2C2" />
<rect x="20" y="7" width="1" height="1" fill="#C2C2C2" />
<rect x="21" y="7" width="1" height="1" fill="#C2C2C2" />
<rect x="22" y="7" width="1" height="1" fill="#C2C2C2" />
<rect x="23" y="7" width="1" height="1" fill="#C2C2C2" />
<rect x="24" y="7" width="1" height="1" fill="#C2C2C2" />
<rect x="25" y="7" width="1" height="1" fill="#C2C2C2" />
<rect x="26" y="7" width="1" height="1" fill="#C2C2C2" />
<rect x="27" y="7" width="1" height="1" fill="#C2C2C2" />
<rect x="28" y="7" width="1" height="1" fill="#C2C2C2" />
<rect x="29" y="7" width="1" height="1" fill="#C2C2C2" />
<rect x="30" y="7" width="1" height="1" fill="#C2C2C2" />
<rect x="31" y="7" width="1" height="1" fill="#C2C2C2" />
<rect x="32" y="7" width="1" height="1" fill="#C2C2C2" />
<rect x="33" y="7" width="1" height="1" fill="#C2C2C2" />
<rect x="34" y="7" width="1" height="1" fill="#C2C2C2" />
<rect x="35" y="7" width="1" height="1" fill="#C2C2C2" />
<rect x="36" y="7" width="1" height="1" fill="#C2C2C2" />
<rect x="37" y="7" width="1" height="1" fill="#C2C2C2" />
<rect x="38" y="7" width="1" height="1" fill="#C2C2C2" />
<rect x="39" y="7" width="1" height="1" fill="#C2C2C2" />
<rect x="40" y="7" width="1" height="1" fill="#847E87" />
<rect x="41" y="7" width="1" height="1" fill="#141323" />
<rect x="0" y="8" width="1" height="1" fill="#141323" />
<rect x="1" y="8" width="1" height="1" fill="#C2C2C2" />
<rect x="2" y="8" width="1" height="1" fill="#C2C2C2" />
<rect x="3" y="8" width="1" height="1" fill="#C2C2C2" />
<rect x="4" y="8" width="1" height="1" fill="#C2C2C2" />
<rect x="5" y="8" width="1" height="1" fill="#C2C2C2" />
<rect x="6" y="8" width="1" height="1" fill="#C2C2C2" />
<rect x="7" y="8" width="1" height="1" fill="#C2C2C2" />
<rect x="8" y="8" width="1" height="1" fill="#C2C2C2" />
<rect x="9" y="8" width="1" height="1" fill="#C2C2C2" />
<rect x="10" y="8" width="1" height="1" fill="#EEE5E5" />
<rect x="11" y="8" width="1" height="1" fill="#D0CDE5" />
<rect x="12" y="8" width="1" height="1" fill="#D0CDE5" />
<rect x="13" y="8" width="1" height="1" fill="#EEE5E5" />
<rect x="14" y="8" width="1" height="1" fill="#C2C2C2" />
<rect x="15" y="8" width="1" height="1" fill="#C2C2C2" />
<rect x="16" y="8" width="1" height="1" fill="#EEE5E5" />
<rect x="17" y="8" width="1" height="1" fill="#D0CDE5" />
<rect x="18" y="8" width="1" height="1" fill="#B8BAE5" />
<rect x="19" y="8" width="1" height="1" fill="#D0CDE5" />
<rect x="20" y="8" width="1" height="1" fill="#C2C2C2" />
<rect x="21" y="8" width="1" height="1" fill="#C2C2C2" />
<rect x="22" y="8" width="1" height="1" fill="#EEE5E5" />
<rect x="23" y="8" width="1" height="1" fill="#EEE5E5" />
<rect x="24" y="8" width="1" height="1" fill="#EEE5E5" />
<rect x="25" y="8" width="1" height="1" fill="#EEE5E5" />
<rect x="26" y="8" width="1" height="1" fill="#C2C2C2" />
<rect x="27" y="8" width="1" height="1" fill="#C2C2C2" />
<rect x="28" y="8" width="1" height="1" fill="#EEE5E5" />
<rect x="29" y="8" width="1" height="1" fill="#EEE5E5" />
<rect x="30" y="8" width="1" height="1" fill="#EEE5E5" />
<rect x="31" y="8" width="1" height="1" fill="#EEE5E5" />
<rect x="32" y="8" width="1" height="1" fill="#C2C2C2" />
<rect x="33" y="8" width="1" height="1" fill="#C2C2C2" />
<rect x="34" y="8" width="1" height="1" fill="#C2C2C2" />
<rect x="35" y="8" width="1" height="1" fill="#C2C2C2" />
<rect x="36" y="8" width="1" height="1" fill="#C2C2C2" />
<rect x="37" y="8" width="1" height="1" fill="#C2C2C2" />
<rect x="38" y="8" width="1" height="1" fill="#C2C2C2" />
<rect x="39" y="8" width="1" height="1" fill="#C2C2C2" />
<rect x="40" y="8" width="1" height="1" fill="#B4B3B5" />
<rect x="41" y="8" width="1" height="1" fill="#141323" />
<rect x="0" y="9" width="1" height="1" fill="#141323" />
<rect x="1" y="9" width="1" height="1" fill="#C2C2C2" />
<rect x="2" y="9" width="1" height="1" fill="#C2C2C2" />
<rect x="3" y="9" width="1" height="1" fill="#C2C2C2" />
<rect x="4" y="9" width="1" height="1" fill="#C2C2C2" />
<rect x="5" y="9" width="1" height="1" fill="#C2C2C2" />
<rect x="6" y="9" width="1" height="1" fill="#C2C2C2" />
<rect x="7" y="9" width="1" height="1" fill="#C2C2C2" />
<rect x="8" y="9" width="1" height="1" fill="#C2C2C2" />
<rect x="9" y="9" width="1" height="1" fill="#C2C2C2" />
<rect x="10" y="9" width="1" height="1" fill="#D0CDE5" />
<rect x="11" y="9" width="1" height="1" fill="#D0CDE5" />
<rect x="12" y="9" width="1" height="1" fill="#D0CDE5" />
<rect x="13" y="9" width="1" height="1" fill="#D0CDE5" />
<rect x="14" y="9" width="1" height="1" fill="#C2C2C2" />
<rect x="15" y="9" width="1" height="1" fill="#C2C2C2" />
<rect x="16" y="9" width="1" height="1" fill="#D0CDE5" />
<rect x="17" y="9" width="1" height="1" fill="#B8BAE5" />
<rect x="18" y="9" width="1" height="1" fill="#D0CDE5" />
<rect x="19" y="9" width="1" height="1" fill="#D0CDE5" />
<rect x="20" y="9" width="1" height="1" fill="#C2C2C2" />
<rect x="21" y="9" width="1" height="1" fill="#C2C2C2" />
<rect x="22" y="9" width="1" height="1" fill="#D0CDE5" />
<rect x="23" y="9" width="1" height="1" fill="#B8BAE5" />
<rect x="24" y="9" width="1" height="1" fill="#D0CDE5" />
<rect x="25" y="9" width="1" height="1" fill="#D0CDE5" />
<rect x="26" y="9" width="1" height="1" fill="#C2C2C2" />
<rect x="27" y="9" width="1" height="1" fill="#C2C2C2" />
<rect x="28" y="9" width="1" height="1" fill="#D0CDE5" />
<rect x="29" y="9" width="1" height="1" fill="#B8BAE5" />
<rect x="30" y="9" width="1" height="1" fill="#A5ABE5" />
<rect x="31" y="9" width="1" height="1" fill="#D0CDE5" />
<rect x="32" y="9" width="1" height="1" fill="#C2C2C2" />
<rect x="33" y="9" width="1" height="1" fill="#C2C2C2" />
<rect x="34" y="9" width="1" height="1" fill="#C2C2C2" />
<rect x="35" y="9" width="1" height="1" fill="#C2C2C2" />
<rect x="36" y="9" width="1" height="1" fill="#C2C2C2" />
<rect x="37" y="9" width="1" height="1" fill="#C2C2C2" />
<rect x="38" y="9" width="1" height="1" fill="#C2C2C2" />
<rect x="39" y="9" width="1" height="1" fill="#C2C2C2" />
<rect x="40" y="9" width="1" height="1" fill="#B4B3B5" />
<rect x="41" y="9" width="1" height="1" fill="#141323" />
<rect x="0" y="10" width="1" height="1" fill="#141323" />
<rect x="1" y="10" width="1" height="1" fill="#C2C2C2" />
<rect x="2" y="10" width="1" height="1" fill="#323C39" />
<rect x="3" y="10" width="1" height="1" fill="#323C39" />
<rect x="4" y="10" width="1" height="1" fill="#323C39" />
<rect x="5" y="10" width="1" height="1" fill="#323C39" />
<rect x="6" y="10" width="1" height="1" fill="#323C39" />
<rect x="7" y="10" width="1" height="1" fill="#323C39" />
<rect x="8" y="10" width="1" height="1" fill="#323C39" />
<rect x="9" y="10" width="1" height="1" fill="#C2C2C2" />
<rect x="10" y="10" width="1" height="1" fill="#EEE5E5" />
<rect x="11" y="10" width="1" height="1" fill="#EEE5E5" />
<rect x="12" y="10" width="1" height="1" fill="#EEE5E5" />
<rect x="13" y="10" width="1" height="1" fill="#EEE5E5" />
<rect x="14" y="10" width="1" height="1" fill="#C2C2C2" />
<rect x="15" y="10" width="1" height="1" fill="#C2C2C2" />
<rect x="16" y="10" width="1" height="1" fill="#EEE5E5" />
<rect x="17" y="10" width="1" height="1" fill="#EEE5E5" />
<rect x="18" y="10" width="1" height="1" fill="#EEE5E5" />
<rect x="19" y="10" width="1" height="1" fill="#EEE5E5" />
<rect x="20" y="10" width="1" height="1" fill="#C2C2C2" />
<rect x="21" y="10" width="1" height="1" fill="#C2C2C2" />
<rect x="22" y="10" width="1" height="1" fill="#EEE5E5" />
<rect x="23" y="10" width="1" height="1" fill="#EEE5E5" />
<rect x="24" y="10" width="1" height="1" fill="#EEE5E5" />
<rect x="25" y="10" width="1" height="1" fill="#EEE5E5" />
<rect x="26" y="10" width="1" height="1" fill="#C2C2C2" />
<rect x="27" y="10" width="1" height="1" fill="#C2C2C2" />
<rect x="28" y="10" width="1" height="1" fill="#EEE5E5" />
<rect x="29" y="10" width="1" height="1" fill="#EEE5E5" />
<rect x="30" y="10" width="1" height="1" fill="#EEE5E5" />
<rect x="31" y="10" width="1" height="1" fill="#EEE5E5" />
<rect x="32" y="10" width="1" height="1" fill="#C2C2C2" />
<rect x="33" y="10" width="1" height="1" fill="#C2C2C2" />
<rect x="34" y="10" width="1" height="1" fill="#C2C2C2" />
<rect x="35" y="10" width="1" height="1" fill="#C2C2C2" />
<rect x="36" y="10" width="1" height="1" fill="#C2C2C2" />
<rect x="37" y="10" width="1" height="1" fill="#C2C2C2" />
<rect x="38" y="10" width="1" height="1" fill="#C2C2C2" />
<rect x="39" y="10" width="1" height="1" fill="#C2C2C2" />
<rect x="40" y="10" width="1" height="1" fill="#B4B3B5" />
<rect x="41" y="10" width="1" height="1" fill="#141323" />
<rect x="0" y="11" width="1" height="1" fill="#141323" />
<rect x="1" y="11" width="1" height="1" fill="#C2C2C2" />
<rect x="2" y="11" width="1" height="1" fill="#323C39" />
<rect x="3" y="11" width="1" height="1" fill="#323C39" />
<rect x="4" y="11" width="1" height="1" fill="#323C39" />
<rect x="5" y="11" width="1" height="1" fill="#323C39" />
<rect x="6" y="11" width="1" height="1" fill="#323C39" />
<rect x="7" y="11" width="1" height="1" fill="#323C39" />
<rect x="8" y="11" width="1" height="1" fill="#323C39" />
<rect x="9" y="11" width="1" height="1" fill="#C2C2C2" />
<rect x="10" y="11" width="1" height="1" fill="#C2C2C2" />
<rect x="11" y="11" width="1" height="1" fill="#C2C2C2" />
<rect x="12" y="11" width="1" height="1" fill="#C2C2C2" />
<rect x="13" y="11" width="1" height="1" fill="#C2C2C2" />
<rect x="14" y="11" width="1" height="1" fill="#C2C2C2" />
<rect x="15" y="11" width="1" height="1" fill="#C2C2C2" />
<rect x="16" y="11" width="1" height="1" fill="#C2C2C2" />
<rect x="17" y="11" width="1" height="1" fill="#C2C2C2" />
<rect x="18" y="11" width="1" height="1" fill="#C2C2C2" />
<rect x="19" y="11" width="1" height="1" fill="#C2C2C2" />
<rect x="20" y="11" width="1" height="1" fill="#C2C2C2" />
<rect x="21" y="11" width="1" height="1" fill="#C2C2C2" />
<rect x="22" y="11" width="1" height="1" fill="#C2C2C2" />
<rect x="23" y="11" width="1" height="1" fill="#C2C2C2" />
<rect x="24" y="11" width="1" height="1" fill="#C2C2C2" />
<rect x="25" y="11" width="1" height="1" fill="#C2C2C2" />
<rect x="26" y="11" width="1" height="1" fill="#C2C2C2" />
<rect x="27" y="11" width="1" height="1" fill="#C2C2C2" />
<rect x="28" y="11" width="1" height="1" fill="#C2C2C2" />
<rect x="29" y="11" width="1" height="1" fill="#C2C2C2" />
<rect x="30" y="11" width="1" height="1" fill="#C2C2C2" />
<rect x="31" y="11" width="1" height="1" fill="#C2C2C2" />
<rect x="32" y="11" width="1" height="1" fill="#C2C2C2" />
<rect x="33" y="11" width="1" height="1" fill="#C2C2C2" />
<rect x="34" y="11" width="1" height="1" fill="#C2C2C2" />
<rect x="35" y="11" width="1" height="1" fill="#C2C2C2" />
<rect x="36" y="11" width="1" height="1" fill="#C2C2C2" />
<rect x="37" y="11" width="1" height="1" fill="#C2C2C2" />
<rect x="38" y="11" width="1" height="1" fill="#C2C2C2" />
<rect x="39" y="11" width="1" height="1" fill="#C2C2C2" />
<rect x="40" y="11" width="1" height="1" fill="#B4B3B5" />
<rect x="41" y="11" width="1" height="1" fill="#141323" />
<rect x="0" y="12" width="1" height="1" fill="#141323" />
<rect x="1" y="12" width="1" height="1" fill="#C2C2C2" />
<rect x="2" y="12" width="1" height="1" fill="#323C39" />
<rect x="3" y="12" width="1" height="1" fill="#323C39" />
<rect x="4" y="12" width="1" height="1" fill="#87583E" />
<rect x="5" y="12" width="1" height="1" fill="#8F563B" />
<rect x="6" y="12" width="1" height="1" fill="#804D34" />
<rect x="7" y="12" width="1" height="1" fill="#3E3A33" />
<rect x="8" y="12" width="1" height="1" fill="#323C39" />
<rect x="9" y="12" width="1" height="1" fill="#C2C2C2" />
<rect x="10" y="12" width="1" height="1" fill="#EEE5E5" />
<rect x="11" y="12" width="1" height="1" fill="#EEE5E5" />
<rect x="12" y="12" width="1" height="1" fill="#EEE5E5" />
<rect x="13" y="12" width="1" height="1" fill="#EEE5E5" />
<rect x="14" y="12" width="1" height="1" fill="#C2C2C2" />
<rect x="15" y="12" width="1" height="1" fill="#C2C2C2" />
<rect x="16" y="12" width="1" height="1" fill="#EEE5E5" />
<rect x="17" y="12" width="1" height="1" fill="#EEE5E5" />
<rect x="18" y="12" width="1" height="1" fill="#EEE5E5" />
<rect x="19" y="12" width="1" height="1" fill="#EEE5E5" />
<rect x="20" y="12" width="1" height="1" fill="#C2C2C2" />
<rect x="21" y="12" width="1" height="1" fill="#C2C2C2" />
<rect x="22" y="12" width="1" height="1" fill="#EEE5E5" />
<rect x="23" y="12" width="1" height="1" fill="#EEE5E5" />
<rect x="24" y="12" width="1" height="1" fill="#EEE5E5" />
<rect x="25" y="12" width="1" height="1" fill="#EEE5E5" />
<rect x="26" y="12" width="1" height="1" fill="#C2C2C2" />
<rect x="27" y="12" width="1" height="1" fill="#C2C2C2" />
<rect x="28" y="12" width="1" height="1" fill="#EEE5E5" />
<rect x="29" y="12" width="1" height="1" fill="#EEE5E5" />
<rect x="30" y="12" width="1" height="1" fill="#EEE5E5" />
<rect x="31" y="12" width="1" height="1" fill="#EEE5E5" />
<rect x="32" y="12" width="1" height="1" fill="#C2C2C2" />
<rect x="33" y="12" width="1" height="1" fill="#C2C2C2" />
<rect x="34" y="12" width="1" height="1" fill="#C2C2C2" />
<rect x="35" y="12" width="1" height="1" fill="#C2C2C2" />
<rect x="36" y="12" width="1" height="1" fill="#C2C2C2" />
<rect x="37" y="12" width="1" height="1" fill="#C2C2C2" />
<rect x="38" y="12" width="1" height="1" fill="#C2C2C2" />
<rect x="39" y="12" width="1" height="1" fill="#C2C2C2" />
<rect x="40" y="12" width="1" height="1" fill="#B4B3B5" />
<rect x="41" y="12" width="1" height="1" fill="#141323" />
<rect x="0" y="13" width="1" height="1" fill="#141323" />
<rect x="1" y="13" width="1" height="1" fill="#C2C2C2" />
<rect x="2" y="13" width="1" height="1" fill="#323C39" />
<rect x="3" y="13" width="1" height="1" fill="#84786E" />
<rect x="4" y="13" width="1" height="1" fill="#87583E" />
<rect x="5" y="13" width="1" height="1" fill="#C1A294" />
<rect x="6" y="13" width="1" height="1" fill="#804D34" />
<rect x="7" y="13" width="1" height="1" fill="#804D34" />
<rect x="8" y="13" width="1" height="1" fill="#8F563B" />
<rect x="9" y="13" width="1" height="1" fill="#C2C2C2" />
<rect x="10" y="13" width="1" height="1" fill="#EEE5E5" />
<rect x="11" y="13" width="1" height="1" fill="#B8BAE5" />
<rect x="12" y="13" width="1" height="1" fill="#D0CDE5" />
<rect x="13" y="13" width="1" height="1" fill="#B8BAE5" />
<rect x="14" y="13" width="1" height="1" fill="#C2C2C2" />
<rect x="15" y="13" width="1" height="1" fill="#C2C2C2" />
<rect x="16" y="13" width="1" height="1" fill="#B8BAE5" />
<rect x="17" y="13" width="1" height="1" fill="#969FE5" />
<rect x="18" y="13" width="1" height="1" fill="#D0CDE5" />
<rect x="19" y="13" width="1" height="1" fill="#D0CDE5" />
<rect x="20" y="13" width="1" height="1" fill="#C2C2C2" />
<rect x="21" y="13" width="1" height="1" fill="#C2C2C2" />
<rect x="22" y="13" width="1" height="1" fill="#D0CDE5" />
<rect x="23" y="13" width="1" height="1" fill="#B8BAE5" />
<rect x="24" y="13" width="1" height="1" fill="#A5ABE5" />
<rect x="25" y="13" width="1" height="1" fill="#D0CDE5" />
<rect x="26" y="13" width="1" height="1" fill="#C2C2C2" />
<rect x="27" y="13" width="1" height="1" fill="#C2C2C2" />
<rect x="28" y="13" width="1" height="1" fill="#EEE5E5" />
<rect x="29" y="13" width="1" height="1" fill="#B8BAE5" />
<rect x="30" y="13" width="1" height="1" fill="#B8BAE5" />
<rect x="31" y="13" width="1" height="1" fill="#D0CDE5" />
<rect x="32" y="13" width="1" height="1" fill="#C2C2C2" />
<rect x="33" y="13" width="1" height="1" fill="#C2C2C2" />
<rect x="34" y="13" width="1" height="1" fill="#C2C2C2" />
<rect x="35" y="13" width="1" height="1" fill="#C2C2C2" />
<rect x="36" y="13" width="1" height="1" fill="#C2C2C2" />
<rect x="37" y="13" width="1" height="1" fill="#C2C2C2" />
<rect x="38" y="13" width="1" height="1" fill="#C2C2C2" />
<rect x="39" y="13" width="1" height="1" fill="#C2C2C2" />
<rect x="40" y="13" width="1" height="1" fill="#B4B3B5" />
<rect x="41" y="13" width="1" height="1" fill="#2D2B39" />
<rect x="0" y="14" width="1" height="1" fill="#141323" />
<rect x="1" y="14" width="1" height="1" fill="#C2C2C2" />
<rect x="2" y="14" width="1" height="1" fill="#323C39" />
<rect x="3" y="14" width="1" height="1" fill="#B3A094" />
<rect x="4" y="14" width="1" height="1" fill="#74523D" />
<rect x="5" y="14" width="1" height="1" fill="#8F563B" />
<rect x="6" y="14" width="1" height="1" fill="#804D34" />
<rect x="7" y="14" width="1" height="1" fill="#B99D90" />
<rect x="8" y="14" width="1" height="1" fill="#8F563B" />
<rect x="9" y="14" width="1" height="1" fill="#C2C2C2" />
<rect x="10" y="14" width="1" height="1" fill="#EEE5E5" />
<rect x="11" y="14" width="1" height="1" fill="#EEE5E5" />
<rect x="12" y="14" width="1" height="1" fill="#EEE5E5" />
<rect x="13" y="14" width="1" height="1" fill="#EEE5E5" />
<rect x="14" y="14" width="1" height="1" fill="#C2C2C2" />
<rect x="15" y="14" width="1" height="1" fill="#C2C2C2" />
<rect x="16" y="14" width="1" height="1" fill="#EEE5E5" />
<rect x="17" y="14" width="1" height="1" fill="#EEE5E5" />
<rect x="18" y="14" width="1" height="1" fill="#EEE5E5" />
<rect x="19" y="14" width="1" height="1" fill="#EEE5E5" />
<rect x="20" y="14" width="1" height="1" fill="#C2C2C2" />
<rect x="21" y="14" width="1" height="1" fill="#C2C2C2" />
<rect x="22" y="14" width="1" height="1" fill="#EEE5E5" />
<rect x="23" y="14" width="1" height="1" fill="#EEE5E5" />
<rect x="24" y="14" width="1" height="1" fill="#EEE5E5" />
<rect x="25" y="14" width="1" height="1" fill="#EEE5E5" />
<rect x="26" y="14" width="1" height="1" fill="#C2C2C2" />
<rect x="27" y="14" width="1" height="1" fill="#C2C2C2" />
<rect x="28" y="14" width="1" height="1" fill="#EEE5E5" />
<rect x="29" y="14" width="1" height="1" fill="#EEE5E5" />
<rect x="30" y="14" width="1" height="1" fill="#EEE5E5" />
<rect x="31" y="14" width="1" height="1" fill="#EEE5E5" />
<rect x="32" y="14" width="1" height="1" fill="#C2C2C2" />
<rect x="33" y="14" width="1" height="1" fill="#C2C2C2" />
<rect x="34" y="14" width="1" height="1" fill="#3F3F74" />
<rect x="35" y="14" width="1" height="1" fill="#3F3F74" />
<rect x="36" y="14" width="1" height="1" fill="#3F3F74" />
<rect x="37" y="14" width="1" height="1" fill="#3F3F74" />
<rect x="38" y="14" width="1" height="1" fill="#C2C2C2" />
<rect x="39" y="14" width="1" height="1" fill="#C2C2C2" />
<rect x="40" y="14" width="1" height="1" fill="#B4B3B5" />
<rect x="41" y="14" width="1" height="1" fill="#141323" />
<rect x="0" y="15" width="1" height="1" fill="#141323" />
<rect x="1" y="15" width="1" height="1" fill="#639BFF" />
<rect x="2" y="15" width="1" height="1" fill="#639BFF" />
<rect x="3" y="15" width="1" height="1" fill="#FFFFFF" />
<rect x="4" y="15" width="1" height="1" fill="#FFFFFF" />
<rect x="5" y="15" width="1" height="1" fill="#FFFFFF" />
<rect x="6" y="15" width="1" height="1" fill="#FFFFFF" />
<rect x="7" y="15" width="1" height="1" fill="#FFFFFF" />
<rect x="8" y="15" width="1" height="1" fill="#FFFFFF" />
<rect x="9" y="15" width="1" height="1" fill="#FFFFFF" />
<rect x="10" y="15" width="1" height="1" fill="#FFFFFF" />
<rect x="11" y="15" width="1" height="1" fill="#814E64" />
<rect x="12" y="15" width="1" height="1" fill="#5B6EE1" />
<rect x="13" y="15" width="1" height="1" fill="#639BFF" />
<rect x="14" y="15" width="1" height="1" fill="#639BFF" />
<rect x="15" y="15" width="1" height="1" fill="#639BFF" />
<rect x="16" y="15" width="1" height="1" fill="#639BFF" />
<rect x="17" y="15" width="1" height="1" fill="#639BFF" />
<rect x="18" y="15" width="1" height="1" fill="#639BFF" />
<rect x="19" y="15" width="1" height="1" fill="#639BFF" />
<rect x="20" y="15" width="1" height="1" fill="#639BFF" />
<rect x="21" y="15" width="1" height="1" fill="#639BFF" />
<rect x="22" y="15" width="1" height="1" fill="#639BFF" />
<rect x="23" y="15" width="1" height="1" fill="#639BFF" />
<rect x="24" y="15" width="1" height="1" fill="#639BFF" />
<rect x="25" y="15" width="1" height="1" fill="#639BFF" />
<rect x="26" y="15" width="1" height="1" fill="#639BFF" />
<rect x="27" y="15" width="1" height="1" fill="#639BFF" />
<rect x="28" y="15" width="1" height="1" fill="#639BFF" />
<rect x="29" y="15" width="1" height="1" fill="#639BFF" />
<rect x="30" y="15" width="1" height="1" fill="#639BFF" />
<rect x="31" y="15" width="1" height="1" fill="#639BFF" />
<rect x="32" y="15" width="1" height="1" fill="#639BFF" />
<rect x="33" y="15" width="1" height="1" fill="#639BFF" />
<rect x="34" y="15" width="1" height="1" fill="#639BFF" />
<rect x="35" y="15" width="1" height="1" fill="#6089F3" />
<rect x="36" y="15" width="1" height="1" fill="#6089F3" />
<rect x="37" y="15" width="1" height="1" fill="#639BFF" />
<rect x="38" y="15" width="1" height="1" fill="#6089F3" />
<rect x="39" y="15" width="1" height="1" fill="#5E7FEC" />
<rect x="40" y="15" width="1" height="1" fill="#5E7FEC" />
<rect x="41" y="15" width="1" height="1" fill="#141323" />
<rect x="0" y="16" width="1" height="1" fill="#141323" />
<rect x="1" y="16" width="1" height="1" fill="#141323" />
<rect x="2" y="16" width="1" height="1" fill="#141323" />
<rect x="3" y="16" width="1" height="1" fill="#141323" />
<rect x="4" y="16" width="1" height="1" fill="#141323" />
<rect x="5" y="16" width="1" height="1" fill="#141323" />
<rect x="6" y="16" width="1" height="1" fill="#141323" />
<rect x="7" y="16" width="1" height="1" fill="#141323" />
<rect x="8" y="16" width="1" height="1" fill="#141323" />
<rect x="9" y="16" width="1" height="1" fill="#141323" />
<rect x="10" y="16" width="1" height="1" fill="#141323" />
<rect x="11" y="16" width="1" height="1" fill="#141323" />
<rect x="12" y="16" width="1" height="1" fill="#141323" />
<rect x="13" y="16" width="1" height="1" fill="#141323" />
<rect x="14" y="16" width="1" height="1" fill="#141323" />
<rect x="15" y="16" width="1" height="1" fill="#141323" />
<rect x="16" y="16" width="1" height="1" fill="#141323" />
<rect x="17" y="16" width="1" height="1" fill="#141323" />
<rect x="18" y="16" width="1" height="1" fill="#141323" />
<rect x="19" y="16" width="1" height="1" fill="#141323" />
<rect x="20" y="16" width="1" height="1" fill="#141323" />
<rect x="21" y="16" width="1" height="1" fill="#141323" />
<rect x="22" y="16" width="1" height="1" fill="#141323" />
<rect x="23" y="16" width="1" height="1" fill="#141323" />
<rect x="24" y="16" width="1" height="1" fill="#141323" />
<rect x="25" y="16" width="1" height="1" fill="#141323" />
<rect x="26" y="16" width="1" height="1" fill="#141323" />
<rect x="27" y="16" width="1" height="1" fill="#141323" />
<rect x="28" y="16" width="1" height="1" fill="#141323" />
<rect x="29" y="16" width="1" height="1" fill="#1A182A" />
<rect x="30" y="16" width="1" height="1" fill="#141323" />
<rect x="31" y="16" width="1" height="1" fill="#1A182A" />
<rect x="32" y="16" width="1" height="1" fill="#1A182A" />
<rect x="33" y="16" width="1" height="1" fill="#141323" />
<rect x="34" y="16" width="1" height="1" fill="#1A182A" />
<rect x="35" y="16" width="1" height="1" fill="#141323" />
<rect x="36" y="16" width="1" height="1" fill="#141323" />
<rect x="37" y="16" width="1" height="1" fill="#261624" />
<rect x="38" y="16" width="1" height="1" fill="#411C27" />
<rect x="39" y="16" width="1" height="1" fill="#60222A" />
<rect x="40" y="16" width="1" height="1" fill="#141323" />
<rect x="41" y="16" width="1" height="1" fill="#141323" />
<rect x="20" y="17" width="1" height="1" fill="#141323" />
<rect x="21" y="17" width="1" height="1" fill="#141323" />
<rect x="20" y="18" width="1" height="1" fill="#141323" />
<rect x="21" y="18" width="1" height="1" fill="#141323" />
<rect x="20" y="19" width="1" height="1" fill="#141323" />
<rect x="21" y="19" width="1" height="1" fill="#141323" />
<rect x="13" y="20" width="1" height="1" fill="#141323" />
<rect x="14" y="20" width="1" height="1" fill="#141323" />
<rect x="15" y="20" width="1" height="1" fill="#141323" />
<rect x="16" y="20" width="1" height="1" fill="#141323" />
<rect x="17" y="20" width="1" height="1" fill="#141323" />
<rect x="18" y="20" width="1" height="1" fill="#141323" />
<rect x="19" y="20" width="1" height="1" fill="#141323" />
<rect x="20" y="20" width="1" height="1" fill="#141323" />
<rect x="21" y="20" width="1" height="1" fill="#141323" />
<rect x="22" y="20" width="1" height="1" fill="#141323" />
<rect x="23" y="20" width="1" height="1" fill="#141323" />
<rect x="24" y="20" width="1" height="1" fill="#141323" />
<rect x="25" y="20" width="1" height="1" fill="#141323" />
<rect x="26" y="20" width="1" height="1" fill="#141323" />
<rect x="27" y="20" width="1" height="1" fill="#141323" />
<rect x="28" y="20" width="1" height="1" fill="#141323" />
</svg>